HIERARCHY
ROOT Hips
{
	OFFSET 0.00000 0.00000 0.00000
	CHANNELS 6 Xposition Yposition Zposition Zrotation Yrotation Xrotation 
	JOINT LHipJoint
	{
		OFFSET 0 0 0
		CHANNELS 3 Zrotation Yrotation Xrotation
		JOINT LeftUpLeg
		{
			OFFSET 1.38615 -1.80049 0.80104
			CHANNELS 3 Zrotation Yrotation Xrotation
			JOINT LeftLeg
			{
				OFFSET 2.50172 -6.87341 0.00000
				CHANNELS 3 Zrotation Yrotation Xrotation
				JOINT LeftFoot
				{
					OFFSET 2.67523 -7.35014 0.00000
					CHANNELS 3 Zrotation Yrotation Xrotation
					JOINT LeftToeBase
					{
						OFFSET 0.17446 -0.47932 2.13155
						CHANNELS 3 Zrotation Yrotation Xrotation
						End Site
						{
							OFFSET 0.00000 -0.00000 1.10023
						}
					}
				}
			}
		}
	}
	JOINT RHipJoint
	{
		OFFSET 0 0 0
		CHANNELS 3 Zrotation Yrotation Xrotation
		JOINT RightUpLeg
		{
			OFFSET -1.18047 -1.80049 0.80104
			CHANNELS 3 Zrotation Yrotation Xrotation
			JOINT RightLeg
			{
				OFFSET -2.59789 -7.13765 0.00000
				CHANNELS 3 Zrotation Yrotation Xrotation
				JOINT RightFoot
				{
					OFFSET -2.62125 -7.20183 0.00000
					CHANNELS 3 Zrotation Yrotation Xrotation
					JOINT RightToeBase
					{
						OFFSET -0.31287 -0.85960 2.07814
						CHANNELS 3 Zrotation Yrotation Xrotation
						End Site
						{
							OFFSET -0.00000 -0.00000 1.11766
						}
					}
				}
			}
		}
	}
	JOINT LowerBack
	{
		OFFSET 0 0 0
		CHANNELS 3 Zrotation Yrotation Xrotation
		JOINT Spine
		{
			OFFSET -0.01587 2.16157 -0.12309
			CHANNELS 3 Zrotation Yrotation Xrotation
			JOINT Spine1
			{
				OFFSET 0.04727 2.16674 -0.03569
				CHANNELS 3 Zrotation Yrotation Xrotation
				JOINT Neck
				{
					OFFSET 0 0 0
					CHANNELS 3 Zrotation Yrotation Xrotation
					JOINT Neck1
					{
						OFFSET -0.08586 1.60335 0.32783
						CHANNELS 3 Zrotation Yrotation Xrotation
						JOINT Head
						{
							OFFSET 0.07583 1.65857 -0.31618
							CHANNELS 3 Zrotation Yrotation Xrotation
							End Site
							{
								OFFSET 0.03386 1.69434 -0.14584
							}
						}
					}
				}
				JOINT LeftShoulder
				{
					OFFSET 0 0 0
					CHANNELS 3 Zrotation Yrotation Xrotation
					JOINT LeftArm
					{
						OFFSET 3.17393 1.01901 -0.52897
						CHANNELS 3 Zrotation Yrotation Xrotation
						JOINT LeftForeArm
						{
							OFFSET 5.25287 -0.00000 -0.00000
							CHANNELS 3 Zrotation Yrotation Xrotation
							JOINT LeftHand
							{
								OFFSET 3.51014 -0.00000 0.00000
								CHANNELS 3 Zrotation Yrotation Xrotation
								JOINT LeftFingerBase
								{
									OFFSET 0 0 0
									CHANNELS 3 Zrotation Yrotation Xrotation
									JOINT LeftHandIndex1
									{
										OFFSET 0.70618 -0.00000 -0.00000
										CHANNELS 3 Zrotation Yrotation Xrotation
										End Site
										{
											OFFSET 0.56934 -0.00000 -0.00000
										}
									}
								}
								JOINT LThumb
								{
									OFFSET 0 0 0
									CHANNELS 3 Zrotation Yrotation Xrotation
									End Site
									{
										OFFSET 0.57803 -0.00000 0.57803
									}
								}
							}
						}
					}
				}
				JOINT RightShoulder
				{
					OFFSET 0 0 0
					CHANNELS 3 Zrotation Yrotation Xrotation
					JOINT RightArm
					{
						OFFSET -2.99471 1.26495 -0.61125
						CHANNELS 3 Zrotation Yrotation Xrotation
						JOINT RightForeArm
						{
							OFFSET -5.28721 -0.00000 -0.00000
							CHANNELS 3 Zrotation Yrotation Xrotation
							JOINT RightHand
							{
								OFFSET -3.50544 -0.00000 0.00000
								CHANNELS 3 Zrotation Yrotation Xrotation
								JOINT RightFingerBase
								{
									OFFSET 0 0 0
									CHANNELS 3 Zrotation Yrotation Xrotation
									JOINT RightHandIndex1
									{
										OFFSET -0.88500 -0.00000 -0.00000
										CHANNELS 3 Zrotation Yrotation Xrotation
										End Site
										{
											OFFSET -0.71351 -0.00000 -0.00000
										}
									}
								}
								JOINT RThumb
								{
									OFFSET 0 0 0
									CHANNELS 3 Zrotation Yrotation Xrotation
									End Site
									{
										OFFSET -0.72440 -0.00000 0.72440
									}
								}
							}
						}
					}
				}
			}
		}
	}
}
MOTION
Frames: 15
Frame Time: 0.133333
0.00 0.00 0.00 0 0 0 0 0 0 -21 0 0 0 0 0 0 0 0 0 0 0 0 0 0 21 0 0 0 0 0 0 0 0 0 0 0 0 0 0 0 0 0 0 0 0 0 0 -16 0 0 21 0 0 11 0 0 0 -8 0 0 0 0 0 0 0 0 0 0 0 0 0 0 0 0 0 0 0 0 8 0 0 0 0 0 0 0 0 0 0 0 0 0 0 0 0 0
0.00 0.00 0.00 4.2103 -70.0934 3.7168 0.0000 0.0000 0.0000 -17.1609 0.0300 -13.3202 1.6163 8.0163 22.7637 0.6047 -8.1837 -14.1448 0.2821 -3.4158 -9.4385 0.0000 0.0000 0.0000 19.7488 -5.1683 -18.3020 -3.7200 -11.7781 34.9516 -2.0998 2.5211 -26.7524 -0.0000 0.0190 -0.0522 -1.1884 1.8819 1.0030 1.9601 2.4938 0.4674 2.6431 1.2420 -0.2212 -1.8021 8.4064 -17.8076 -2.6797 13.2238 28.2482 1.3385 5.2020 12.3788 0.0000 0.0000 0.0000 -89.8747 -0.1811 18.9395 17.2916 -27.2405 -4.2199 -0.0000 -0.0000 13.0765 -0.2691 39.0832 -0.1697 -7.1250 0.0000 -0.0000 -43.8839 63.6528 -21.8927 0.0000 0.0000 0.0000 85.7122 0.5702 6.7774 -18.5205 28.8186 -4.7975 0.0000 -0.0000 -6.0487 -16.2490 11.8015 -3.4113 7.1250 -0.0000 -0.0000 7.6295 -17.7667 4.9821
0.00 0.00 0.00 2.2894 -70.6000 5.1572 0.0000 0.0000 0.0000 -15.5162 1.2363 -23.2266 4.4462 12.7316 38.3719 0.8380 -13.5687 -17.6689 0.0123 -0.7168 -1.9698 0.0000 0.0000 0.0000 19.6493 -7.3100 -25.8817 -6.3831 -14.7896 46.5004 -2.5184 7.0415 -28.6807 -0.0691 1.6958 -4.6657 -0.1892 2.0646 5.5169 2.2780 2.7519 1.4033 2.2560 1.3623 -1.7674 -2.0469 7.9210 -18.0544 -2.7977 12.5298 26.5329 1.1944 4.9532 11.7415 -0.0000 -0.0000 0.0000 -89.2971 -0.5876 16.8723 19.4621 -29.9888 -5.2598 -0.0000 -0.0000 11.5582 1.6910 38.6651 1.0567 -7.1250 0.0000 -0.0000 -41.4223 63.8805 -20.6603 -0.0000 -0.0000 0.0000 84.5140 1.2896 3.9746 -20.8345 31.6346 -5.9629 0.0000 -0.0000 -7.8267 -15.3516 12.5826 -3.4226 7.1250 -0.0000 -0.0000 8.2511 -17.0312 5.5306
0.00 0.00 0.00 2.0723 -70.6224 5.0395 0.0000 0.0000 0.0000 -14.7300 2.0111 -32.6077 8.3340 16.3595 53.7570 1.2009 -15.5973 -20.9934 0.1363 -2.3795 -6.5556 0.0000 0.0000 0.0000 18.2916 -8.8727 -34.8050 -10.4783 -17.6702 61.0755 -2.6624 10.4961 -29.3923 -0.3671 3.8921 -10.7732 0.1824 1.7218 9.7146 2.8057 2.3218 2.4906 2.5269 1.1224 -2.9647 -2.8679 7.6214 -18.2355 -2.7863 12.2186 24.5124 1.2342 4.8533 10.9523 0.0000 -0.0000 0.0000 -88.4770 -1.0170 13.2113 22.3863 -33.4108 -6.7973 -0.0000 -0.0000 10.6434 -0.5997 37.3304 -0.3637 -7.1250 0.0000 -0.0000 -41.8715 62.2775 -19.3655 0.0000 -0.0000 0.0000 81.9305 2.8316 0.5430 -22.5174 33.5569 -6.8697 0.0000 -0.0000 -8.8608 -14.7673 13.2814 -3.4655 7.1250 -0.0000 -0.0000 8.6520 -16.3621 5.9330
0.00 0.00 0.00 -1.0218 -69.4307 8.7119 0.0000 0.0000 0.0000 -10.9570 1.6832 -44.4353 13.7192 19.0266 71.3450 0.8153 -21.2583 -20.6936 0.1273 -2.2995 -6.3342 0.0000 0.0000 0.0000 17.8162 -10.2266 -45.2456 -15.6545 -19.5411 77.2007 -2.4914 14.5846 -28.7204 -0.7799 5.6384 -15.7389 0.5623 1.3471 13.3638 3.9023 1.9138 3.1452 3.4631 0.8920 -4.2944 -3.0128 7.1606 -19.3050 -3.2516 11.6766 22.4884 1.0155 4.6297 10.4373 -0.0000 -0.0000 0.0000 -85.4186 -0.9587 10.9941 25.6757 -36.8867 -8.6923 -0.0000 -0.0000 11.0991 -2.6697 36.2251 -1.5785 -7.1250 0.0000 -0.0000 -42.4849 60.9299 -18.3481 -0.0000 -0.0000 0.0000 78.6079 3.2678 -4.5444 -25.0124 36.2166 -8.2972 0.0000 -0.0000 -8.7405 -14.6352 14.6119 -3.7690 7.1250 -0.0000 -0.0000 8.7428 -15.0197 6.2528
0.00 0.00 0.00 -0.5218 -70.0909 8.2702 0.0000 0.0000 0.0000 -9.3039 3.7203 -53.6517 18.8240 19.9668 86.5597 0.4129 -25.0397 -20.2865 0.0099 -0.6427 -1.7663 0.0000 0.0000 0.0000 15.3558 -11.7312 -53.7073 -20.7580 -19.9862 92.2169 -2.3659 18.8471 -28.8314 -0.9532 6.2172 -17.4159 0.6456 1.5375 15.6760 3.9390 2.1441 4.1511 3.3901 0.9718 -4.4991 -3.5555 6.5118 -19.9320 -2.4068 10.6291 20.2955 1.2113 4.3211 9.6744 -0.0000 -0.0000 0.0000 -80.8468 -0.6840 8.0761 28.4085 -39.4896 -10.3824 -0.0000 -0.0000 11.0470 -1.7003 35.1973 -0.9802 -7.1250 0.0000 -0.0000 -40.3834 60.3878 -16.7312 -0.0000 -0.0000 0.0000 75.2742 2.7132 -9.0287 -27.3144 38.4774 -9.6941 0.0000 -0.0000 -9.0098 -16.6925 14.9707 -4.4295 7.1250 -0.0000 -0.0000 7.3535 -14.4720 5.3273
0.00 0.00 0.00 0.1316 -69.4011 6.6550 0.0000 0.0000 0.0000 -6.2155 5.1518 -62.0354 24.1415 19.5837 102.1901 -0.5228 -31.1834 -19.2838 0.0083 0.5890 1.6185 0.0000 0.0000 0.0000 12.5457 -16.2069 -61.7306 -26.0605 -19.0956 107.9803 -2.2387 23.0230 -29.3756 -1.2274 7.0266 -19.7941 0.4436 0.9749 19.8837 4.3326 1.3985 4.8839 4.0804 0.5728 -5.9302 -3.7459 6.2574 -20.0815 -2.3250 10.2243 18.5580 1.1753 4.2139 9.0795 0.0000 0.0000 0.0000 -76.1394 0.2106 1.6779 29.7136 -40.6467 -11.2226 -0.0000 -0.0000 10.2987 3.3035 37.0777 1.9931 -7.1250 0.0000 -0.0000 -37.7591 63.1028 -17.8784 0.0000 0.0000 0.0000 70.5239 2.4752 -12.7131 -27.8516 38.9793 -10.0302 0.0000 -0.0000 -11.4560 -18.3272 14.0842 -4.6085 7.1250 -0.0000 -0.0000 6.2218 -15.2349 4.3946
0.00 0.00 0.00 1.5465 -70.9195 6.3419 0.0000 0.0000 0.0000 -4.3728 9.1478 -73.6384 29.1195 17.8761 117.6073 -0.7910 -33.8913 -20.1422 0.0028 0.3405 0.9355 0.0000 0.0000 0.0000 10.1320 -19.5300 -73.1840 -30.8597 -16.8972 123.4258 -1.8188 26.5250 -28.6402 -1.1456 6.7965 -19.1137 -0.0776 1.3839 22.1202 4.1299 1.8214 5.0269 4.0546 0.7754 -6.9865 -4.0244 6.0337 -20.0943 -1.5024 9.7280 16.7823 1.3808 4.1425 8.4104 -0.0000 -0.0000 0.0000 -71.7627 0.0568 -3.8666 29.0723 -40.0848 -10.8072 -0.0000 -0.0000 8.6175 1.1489 39.2949 0.7276 -7.1250 0.0000 -0.0000 -42.8260 64.1954 -21.7966 -0.0000 -0.0000 0.0000 67.2186 3.9156 -18.9426 -26.1043 37.3115 -8.9508 0.0000 -0.0000 -9.6752 -17.8997 15.0469 -4.7930 7.1250 -0.0000 -0.0000 6.5384 -14.2775 4.7556
0.00 0.00 0.00 1.9358 -74.2513 4.2967 0.0000 0.0000 0.0000 -3.3426 21.9122 -82.1291 33.1501 15.2042 131.6957 -1.1657 -38.2266 -22.1683 0.0180 -0.8667 -2.3821 0.0000 0.0000 0.0000 7.0241 -25.8275 -81.1936 -34.3419 -14.0886 136.4064 -1.2725 31.0280 -28.2515 -1.4490 7.6092 -21.5331 -0.3354 1.9845 25.9980 4.0939 2.4248 6.0934 3.9767 1.0018 -7.8490 -4.6141 6.2009 -20.1227 -0.9879 9.9264 14.7784 1.6059 4.3450 7.6756 0.0000 0.0000 0.0000 -69.7550 0.1775 -9.9494 28.4151 -39.4956 -10.3866 -0.0000 -0.0000 9.2574 1.7001 37.7877 1.0419 -7.1250 0.0000 -0.0000 -40.2399 63.2242 -19.3627 0.0000 0.0000 0.0000 64.2710 4.7328 -19.3025 -25.7352 36.9460 -8.7280 0.0000 -0.0000 -10.4939 -18.8888 14.4586 -4.8829 7.1250 -0.0000 -0.0000 5.8496 -14.7909 4.1847
0.00 0.00 0.00 -2.0063 -75.9437 5.3669 0.0000 0.0000 0.0000 -2.2964 46.4979 -93.6146 36.3844 11.6305 145.5630 -3.1331 -47.7619 -23.6588 0.0252 -1.0247 -2.8168 0.0000 0.0000 0.0000 6.8795 -39.6254 -90.1813 -37.0195 -10.6634 148.8470 -0.8536 35.4648 -29.0036 -1.4130 7.5182 -21.2600 0.8682 2.0394 30.1790 4.4895 2.6972 7.4117 3.6207 1.0081 -8.4015 -4.7389 6.4921 -20.6325 -0.6792 10.2880 13.9007 1.7578 4.5756 7.4339 0.0000 0.0000 0.0000 -68.1352 -0.4833 -13.2291 27.7729 -38.9063 -9.9807 -0.0000 -0.0000 8.6792 3.8984 37.9287 2.3986 -7.1250 0.0000 -0.0000 -38.2640 63.9229 -18.8814 0.0000 0.0000 0.0000 62.1651 6.1464 -19.5943 -25.0938 36.2997 -8.3454 0.0000 -0.0000 -9.3685 -19.6921 14.8742 -5.2491 7.1250 -0.0000 -0.0000 5.3188 -14.2745 3.8602
0.00 0.00 0.00 -0.7511 -76.4533 1.1274 0.0000 0.0000 0.0000 -2.0988 68.1628 -100.1109 37.7396 9.3886 152.9814 -1.0623 -53.1331 -35.5271 0.9359 -6.1621 -17.2555 0.0000 0.0000 0.0000 3.2669 -54.4432 -95.3933 -38.2112 -8.4116 156.0285 0.9305 42.3372 -26.7723 -1.3924 7.4654 -21.1016 0.6396 2.2898 33.3668 4.8716 2.8668 7.8127 3.8051 0.9807 -8.6994 -4.1343 6.4203 -20.2804 -0.6325 9.9665 13.3123 1.6148 4.4866 7.2142 0.0000 -0.0000 0.0000 -67.8296 -1.6687 -15.7248 26.7795 -37.9681 -9.3631 -0.0000 -0.0000 9.8922 3.6721 37.8281 2.2540 -7.1250 0.0000 -0.0000 -38.3562 63.7839 -18.8107 0.0000 -0.0000 0.0000 61.5050 6.4279 -20.7118 -24.4337 35.6196 -7.9578 0.0000 -0.0000 -8.0192 -18.4345 15.4730 -5.0817 7.1250 -0.0000 -0.0000 6.1907 -13.7815 4.5650
0.00 0.00 0.00 -5.2098 -75.0981 0.7264 0.0000 0.0000 0.0000 23.6325 80.6074 -86.2259 38.6476 7.3618 159.2083 -7.1871 -63.8084 -30.8048 0.1169 -2.2039 -6.0696 0.0000 0.0000 0.0000 -5.1175 -69.2552 -94.4680 -39.0232 -6.2916 162.3672 3.1719 45.3191 -20.7872 -0.9875 6.3250 -17.7304 0.6497 2.2271 34.6753 5.4941 2.7213 8.6783 4.5093 0.8386 -8.2739 -0.4525 10.7896 -18.7982 -4.4797 15.2963 10.0612 0.3108 7.0018 6.4039 0.0000 0.0000 0.0000 -84.8509 -5.6532 10.6059 21.7829 -32.7308 -6.4681 -0.0000 -0.0000 13.7116 0.5433 37.8365 0.3332 -7.1250 0.0000 -0.0000 -41.4238 62.9543 -19.7744 0.0000 0.0000 0.0000 75.9576 6.6002 -8.9287 -20.4255 31.1516 -5.7498 0.0000 -0.0000 -5.5503 -17.8561 14.5541 -4.6282 7.1250 -0.0000 -0.0000 6.5548 -14.7921 4.6954
0.00 0.00 0.00 -1.7457 -74.8077 -3.4426 0.0000 0.0000 0.0000 40.2085 83.5883 -70.9772 38.8848 6.7087 161.1450 -5.2762 -63.6843 -35.0782 0.0287 -1.0934 -3.0057 0.0000 0.0000 0.0000 -11.6742 -71.5155 -94.3471 -39.2219 -5.6318 164.2804 5.2454 47.4581 -15.0065 -0.7250 5.4408 -15.1701 0.5225 2.0546 35.3345 5.2607 2.4265 8.7697 4.4357 0.6915 -8.3809 -0.8188 10.8897 -18.6422 -3.9747 15.4082 9.6333 0.4999 7.1093 6.1695 -0.0000 -0.0000 0.0000 -84.9965 -5.9654 10.9553 21.6256 -32.5514 -6.3832 -0.0000 -0.0000 13.5886 1.9543 36.8921 1.1735 -7.1250 0.0000 -0.0000 -38.8548 62.6058 -18.0279 -0.0000 -0.0000 0.0000 76.3013 6.5445 -8.7606 -20.1473 30.8194 -5.6066 0.0000 -0.0000 -5.1884 -19.8683 13.8519 -4.9447 7.1250 -0.0000 -0.0000 5.1608 -15.3288 3.6279
0.00 0.00 0.00 -1.2784 -74.8594 -4.2616 0.0000 0.0000 0.0000 55.7216 84.3460 -55.7099 38.9067 6.6449 161.3326 -14.2107 -67.4691 -20.5605 0.3741 3.9286 10.8758 0.0000 0.0000 0.0000 -14.2359 -71.6503 -92.9123 -39.2393 -5.5702 164.4578 5.4418 47.8641 -14.7823 -0.8407 5.8487 -16.3462 0.5699 2.1198 35.6039 5.2256 2.5113 8.8299 4.3390 0.7239 -8.4127 -0.7128 10.8125 -18.5849 -4.0180 15.2822 9.6024 0.4545 7.0506 6.1606 -0.0000 0.0000 0.0000 -84.9695 -6.0752 11.1575 21.5454 -32.4594 -6.3401 -0.0000 -0.0000 13.6303 1.9693 36.3062 1.1663 -7.1250 0.0000 -0.0000 -38.1282 62.1546 -17.2322 -0.0000 0.0000 0.0000 76.3969 6.4318 -9.0988 -20.0769 30.7349 -5.5706 0.0000 -0.0000 -4.9051 -20.0386 13.7273 -4.9467 7.1250 -0.0000 -0.0000 5.0399 -15.4428 3.5298
0.00 0.00 0.00 -2.0360 -75.2899 -3.8492 0.0000 0.0000 0.0000 91.6869 84.8114 -21.3076 38.9516 6.5112 161.7249 8.8681 -52.1432 -62.0314 3.0780 -10.8203 -31.6762 0.0000 0.0000 0.0000 -16.6442 -71.9053 -91.1221 -39.2590 -5.4989 164.6627 5.6762 48.9817 -15.4822 -1.0477 6.5092 -18.2692 0.8424 2.1976 35.5410 5.3007 2.6808 8.9863 4.2101 0.7902 -8.2200 -0.4758 10.9569 -18.2752 -4.2751 15.4303 9.2704 0.3326 7.1284 6.0463 -0.0000 0.0000 0.0000 -85.4908 -6.1613 10.4480 21.6458 -32.5744 -6.3941 -0.0000 -0.0000 14.2422 0.9673 36.6028 0.5768 -7.1250 0.0000 -0.0000 -39.4615 62.1286 -17.9143 -0.0000 0.0000 0.0000 76.6746 6.6680 -9.6939 -19.9086 30.5320 -5.4848 0.0000 -0.0000 -4.8566 -18.6076 13.2539 -4.4139 7.1250 -0.0000 -0.0000 6.0094 -16.0733 4.1338
